# xmcd
#
# Track frame offsets: 
#        150
#        9045
#        25743
#        45568
#        66017
#        80551
#        99091
#        115914
#        132151
#        149629
#        168663
#        171804
#        194863
#        213218
#        230645
#        252242
#        271566
#        297494
#
# Disc length: 4770 seconds
#
# Revision: 1
# Processed by: cddbd v1.5.1PL0 Copyright (c) Steve Scherf et al.
# Submitted via: ExactAudioCopy v0.90b4
#
DISCID=fc12a012
DTITLE=Advance Patrol - Utskrivna
DYEAR=2003
DGENRE=Hip-Hop
TTITLE0=Utskrivna (Introduktion)
TTITLE1=Vi E Dom
TTITLE2=Desperados
TTITLE3=Estupidos
TTITLE4=OrdUpp! (med Fernadito från Helt Fjuttade)
TTITLE5=Jag Vill Ha
TTITLE6=Operation: Sverige (med Ison and Fille)
TTITLE7=Åsiktsfrihet
TTITLE8=Smunken
TTITLE9=Jag Får Spel
TTITLE10=Grov Bov Live
TTITLE11=Jag Finns Här Med Er Nu (med P. Hollywood Castelo)
TTITLE12=Min Musik
TTITLE13=Rytmer Från Hemtrakten
TTITLE14=Papisnack (med P. Hollywood Castelo)
TTITLE15=Utblandad (med P. Hollywood Castelo)
TTITLE16=Dialogen (98 års områdesversion)
TTITLE17=data
EXTD=
EXTT0=
EXTT1=
EXTT2=
EXTT3=
EXTT4=
EXTT5=
EXTT6=
EXTT7=
EXTT8=
EXTT9=
EXTT10=
EXTT11=
EXTT12=
EXTT13=
EXTT14=
EXTT15=
EXTT16=
EXTT17=
PLAYORDER=
